<svg xmlns="http://www.w3.org/2000/svg" version="1.1" xmlns:xlink="http://www.w3.org/1999/xlink" xmlns:svgjs="http://svgjs.com/svgjs" width="1440" height="645" preserveAspectRatio="none" viewBox="0 0 1440 645"><g mask="url(&quot;#SvgjsMask8069&quot;)" fill="none"><rect width="1440" height="645" x="0" y="0" fill="url(#SvgjsLinearGradient8070)"></rect><path d="M687 423L686 727" stroke-width="6" stroke="url(#SvgjsLinearGradient8071)" stroke-linecap="round" class="Down"></path><path d="M60 411L59 622" stroke-width="8" stroke="url(#SvgjsLinearGradient8071)" stroke-linecap="round" class="Down"></path><path d="M1250 529L1249 329" stroke-width="10" stroke="url(#SvgjsLinearGradient8072)" stroke-linecap="round" class="Up"></path><path d="M1215 86L1214 -240" stroke-width="10" stroke="url(#SvgjsLinearGradient8071)" stroke-linecap="round" class="Down"></path><path d="M115 395L114 602" stroke-width="10" stroke="url(#SvgjsLinearGradient8071)" stroke-linecap="round" class="Down"></path><path d="M1261 260L1260 563" stroke-width="10" stroke="url(#SvgjsLinearGradient8071)" stroke-linecap="round" class="Down"></path><path d="M665 88L664 -116" stroke-width="10" stroke="url(#SvgjsLinearGradient8072)" stroke-linecap="round" class="Up"></path><path d="M1408 101L1407 517" stroke-width="6" stroke="url(#SvgjsLinearGradient8071)" stroke-linecap="round" class="Down"></path><path d="M965 564L964 154" stroke-width="6" stroke="url(#SvgjsLinearGradient8071)" stroke-linecap="round" class="Down"></path><path d="M527 266L526 523" stroke-width="10" stroke="url(#SvgjsLinearGradient8072)" stroke-linecap="round" class="Up"></path><path d="M38 104L37 -338" stroke-width="6" stroke="url(#SvgjsLinearGradient8072)" stroke-linecap="round" class="Up"></path><path d="M741 323L740 93" stroke-width="6" stroke="url(#SvgjsLinearGradient8071)" stroke-linecap="round" class="Down"></path><path d="M521 229L520 537" stroke-width="10" stroke="url(#SvgjsLinearGradient8072)" stroke-linecap="round" class="Up"></path><path d="M1256 491L1255 789" stroke-width="10" stroke="url(#SvgjsLinearGradient8071)" stroke-linecap="round" class="Down"></path><path d="M412 604L411 1058" stroke-width="8" stroke="url(#SvgjsLinearGradient8072)" stroke-linecap="round" class="Up"></path><path d="M491 157L490 -99" stroke-width="6" stroke="url(#SvgjsLinearGradient8071)" stroke-linecap="round" class="Down"></path><path d="M723 139L722 341" stroke-width="10" stroke="url(#SvgjsLinearGradient8072)" stroke-linecap="round" class="Up"></path><path d="M1164 276L1163 -37" stroke-width="8" stroke="url(#SvgjsLinearGradient8071)" stroke-linecap="round" class="Down"></path><path d="M653 288L652 589" stroke-width="8" stroke="url(#SvgjsLinearGradient8071)" stroke-linecap="round" class="Down"></path><path d="M213 436L212 222" stroke-width="6" stroke="url(#SvgjsLinearGradient8071)" stroke-linecap="round" class="Down"></path><path d="M290 108L289 497" stroke-width="10" stroke="url(#SvgjsLinearGradient8072)" stroke-linecap="round" class="Up"></path><path d="M628 619L627 432" stroke-width="8" stroke="url(#SvgjsLinearGradient8071)" stroke-linecap="round" class="Down"></path><path d="M599 8L598 -204" stroke-width="6" stroke="url(#SvgjsLinearGradient8072)" stroke-linecap="round" class="Up"></path><path d="M958 16L957 -230" stroke-width="10" stroke="url(#SvgjsLinearGradient8072)" stroke-linecap="round" class="Up"></path><path d="M545 472L544 827" stroke-width="8" stroke="url(#SvgjsLinearGradient8072)" stroke-linecap="round" class="Up"></path><path d="M510 589L509 113" stroke-width="6" stroke="url(#SvgjsLinearGradient8072)" stroke-linecap="round" class="Up"></path><path d="M1296 162L1295 476" stroke-width="10" stroke="url(#SvgjsLinearGradient8072)" stroke-linecap="round" class="Up"></path><path d="M1431 38L1430 -244" stroke-width="6" stroke="url(#SvgjsLinearGradient8072)" stroke-linecap="round" class="Up"></path><path d="M988 449L987 236" stroke-width="10" stroke="url(#SvgjsLinearGradient8071)" stroke-linecap="round" class="Down"></path><path d="M1261 350L1260 -68" stroke-width="6" stroke="url(#SvgjsLinearGradient8071)" stroke-linecap="round" class="Down"></path><path d="M763 506L762 217" stroke-width="10" stroke="url(#SvgjsLinearGradient8071)" stroke-linecap="round" class="Down"></path><path d="M1019 336L1018 536" stroke-width="10" stroke="url(#SvgjsLinearGradient8071)" stroke-linecap="round" class="Down"></path><path d="M1389 612L1388 778" stroke-width="6" stroke="url(#SvgjsLinearGradient8071)" stroke-linecap="round" class="Down"></path><path d="M519 541L518 924" stroke-width="6" stroke="url(#SvgjsLinearGradient8071)" stroke-linecap="round" class="Down"></path><path d="M346 611L345 907" stroke-width="8" stroke="url(#SvgjsLinearGradient8071)" stroke-linecap="round" class="Down"></path><path d="M649 379L648 -3" stroke-width="10" stroke="url(#SvgjsLinearGradient8071)" stroke-linecap="round" class="Down"></path></g><defs><mask id="SvgjsMask8069"><rect width="1440" height="645" fill="#ffffff"></rect></mask><linearGradient x1="100%" y1="50%" x2="0%" y2="50%" gradientUnits="userSpaceOnUse" id="SvgjsLinearGradient8070"><stop stop-color="rgba(221, 227, 233, 1)" offset="1"></stop><stop stop-color="rgba(250, 253, 255, 1)" offset="1"></stop></linearGradient><linearGradient x1="0%" y1="0%" x2="0%" y2="100%" id="SvgjsLinearGradient8071"><stop stop-color="rgba(175, 178, 207, 0)" offset="0"></stop><stop stop-color="rgba(175, 178, 207, 1)" offset="1"></stop></linearGradient><linearGradient x1="0%" y1="100%" x2="0%" y2="0%" id="SvgjsLinearGradient8072"><stop stop-color="rgba(175, 178, 207, 0)" offset="0"></stop><stop stop-color="rgba(175, 178, 207, 1)" offset="1"></stop></linearGradient></defs></svg>