<svg xmlns="http://www.w3.org/2000/svg" version="1.1" xmlns:xlink="http://www.w3.org/1999/xlink" xmlns:svgjs="http://svgjs.com/svgjs" width="1440" height="560" preserveAspectRatio="none" viewBox="0 0 1440 560"><g mask="url(&quot;#SvgjsMask1071&quot;)" fill="none"><rect width="1440" height="560" x="0" y="0" fill="rgba(143, 177, 213, 1)"></rect><path d="M0,265.318C69.819,266.288,133.128,331.249,200.029,311.251C269.64,290.443,321.714,226.788,351.136,160.358C380.409,94.264,389.115,14.651,360.859,-51.884C334.283,-114.463,261.924,-139.346,206.898,-179.278C164.734,-209.876,121.676,-233.689,75.945,-258.644C16.444,-291.113,-34.467,-351.401,-102.161,-347.928C-172.047,-344.343,-232.389,-293.954,-277.563,-240.51C-322.428,-187.432,-358.562,-120.099,-353.313,-50.799C-348.314,15.204,-277.326,53.889,-250.675,114.479C-223.444,176.388,-254.438,270.869,-196.487,305.74C-138.008,340.929,-68.243,264.37,0,265.318" fill="#6896c6"></path><path d="M1440 1010.767C1528.86 1018.386 1617.377 999.98 1697.225 960.25 1783.561 917.2909999999999 1870.671 862.675 1912.374 775.726 1954.346 688.215 1936.518 586.665 1922.464 490.632 1908.441 394.813 1894.676 294.159 1831.1970000000001 221.026 1767.74 147.918 1672.919 107.132 1577.174 92.82999999999998 1488.244 79.54599999999999 1405.86 125.43299999999999 1317.9569999999999 144.35899999999998 1221.535 165.11900000000003 1108.298 142.959 1035.46 209.464 961.515 276.98 960.971 390.119 941.275 488.294 920.437 592.16 861.165 708.858 917.24 798.736 974.1410000000001 889.938 1110.029 878.039 1209.643 918.442 1287.885 950.177 1355.876 1003.554 1440 1010.767" fill="#b6cce4"></path></g><defs><mask id="SvgjsMask1071"><rect width="1440" height="560" fill="#ffffff"></rect></mask></defs></svg>